<?xml version="1.0" encoding="UTF-8" standalone="no"?>
<!-- Created with Inkscape (http://www.inkscape.org/) -->

<svg
   width="210mm"
   height="297mm"
   viewBox="0 0 210 297"
   version="1.1"
   id="svg5"
   xmlns="http://www.w3.org/2000/svg"
   xmlns:svg="http://www.w3.org/2000/svg">
  <defs
     id="defs2" />
  <g
     id="layer1">
    <g
       id="g5407"
       transform="translate(-57.876923,-31.375385)">
      <rect
         style="fill:#002a88;fill-opacity:1;stroke-width:0.172295"
         id="rect234-0"
         width="50"
         height="65.49231"
         x="120.14923"
         y="51.023067" />
      <path
         style="fill:#eba500;fill-opacity:1;stroke-width:0.230563"
         d="m 135.34082,95.548227 c -3.16738,-1.369925 -5.95976,-3.595629 -8.00155,-6.377732 -2.04178,-2.782102 -3.32769,-6.11341 -3.68475,-9.545827 -0.35706,-3.432417 0.21565,-6.95707 1.64109,-10.099853 1.42545,-3.142784 3.69994,-5.895575 6.51754,-7.888092 2.81759,-1.992517 6.17101,-3.21961 9.60918,-3.516221 3.43817,-0.296612 6.9522,0.338026 10.06941,1.818546 3.11722,1.48052 5.82956,3.803096 7.7722,6.655315 1.94263,2.852219 3.11053,6.226709 3.3466,9.669564 0.43956,6.410573 -2.26738,12.586055 -3.1425,18.95181 -0.46583,3.388535 -0.4161,6.865953 -1.33614,10.160293 -0.46002,1.64717 -1.16885,3.24244 -2.23332,4.58099 -1.06447,1.33854 -2.50167,2.41062 -4.14603,2.88059 -2.13061,0.60894 -4.47151,0.16349 -6.42163,-0.8888 -1.95012,-1.05229 -3.54498,-2.66828 -4.88778,-4.431 -2.65541,-3.48583 -4.42624,-7.640019 -5.10232,-11.969583 z"
         id="path1048-2-7-8" />
      <path
         style="fill:#000000;fill-opacity:1;stroke:#514d4d;stroke-width:0.691;stroke-dasharray:none;stroke-opacity:1"
         d="m 138.85135,92.623345 c -2.6242,-1.135333 -4.93762,-2.97967 -6.62911,-5.284936 -1.69149,-2.305267 -2.75667,-5.065506 -3.05226,-7.909449 -0.2956,-2.843943 0.17915,-5.76424 1.36039,-8.368095 1.18125,-2.603854 3.06592,-4.884535 5.40054,-6.53528 2.33462,-1.650744 5.11314,-2.667285 7.96183,-2.912891 2.8487,-0.245607 5.76021,0.280356 8.34292,1.507142 2.5827,1.226787 4.82994,3.151227 6.43943,5.514472 1.60949,2.363245 2.57708,5.159188 2.77262,8.011757 0.36408,5.311267 -1.8786,10.427725 -2.60396,15.70181 -0.38611,2.807445 -0.34518,5.688547 -1.10764,8.417925 -0.38123,1.36469 -0.96858,2.68636 -1.85054,3.79535 -0.88196,1.10898 -2.07269,1.99722 -3.43506,2.38666 -1.76541,0.50465 -3.70511,0.13565 -5.32104,-0.73619 -1.61592,-0.87184 -2.93751,-2.21079 -4.05022,-3.67134 -2.20021,-2.888009 -3.66756,-6.329798 -4.2279,-9.916935 z"
         id="path1048-3" />
      <path
         style="fill:#4d4d4d;fill-opacity:1;stroke:#d3d3d3;stroke-width:0.688;stroke-dasharray:none;stroke-opacity:0.481229"
         d="m 136.67678,74.365016 c -0.53208,0.780784 -0.80645,1.734128 -0.77081,2.678299 0.0356,0.94417 0.3811,1.874119 0.97052,2.612572 0.58941,0.738452 1.41965,1.281461 2.33243,1.525513 0.91278,0.244052 1.90322,0.187842 2.78253,-0.157914 1.11564,-0.438684 2.0156,-1.316091 2.67999,-2.313918 0.6644,-0.997828 1.11616,-2.119281 1.55513,-3.234802 0.59618,-1.515016 1.17751,-3.035877 1.74388,-4.56229"
         id="path1278-7-8" />
      <path
         style="fill:#4d4d4d;fill-opacity:1;stroke-width:0.0683818;stroke-dasharray:none"
         d="m 152.70698,70.305415 c -0.50192,0.581031 -0.7997,1.335025 -0.83023,2.102221 -0.0305,0.767197 0.20637,1.542472 0.66053,2.161556 0.45415,0.619085 1.12252,1.077843 1.86349,1.279073 0.74096,0.201229 1.54957,0.143584 2.2545,-0.16072 0.86419,-0.373057 1.5428,-1.091817 2.0305,-1.896897 0.4877,-0.805081 0.80354,-1.70024 1.1158,-2.588213 0.43222,-1.229116 0.86407,-2.458366 1.29553,-3.68775"
         id="path1278-8-1-7" />
      <path
         style="fill:none;fill-opacity:1;stroke:#ffffff;stroke-width:0.0942604;stroke-opacity:1"
         d="m 135.74072,86.883748 c 3.32804,0.75681 6.23497,3.173511 7.58682,6.307379 0.73992,1.715292 1.02546,3.584726 1.39583,5.415721 0.27287,1.348973 0.59502,2.687972 0.96559,4.013442"
         id="path2236-6" />
      <path
         style="fill:#ffffff;fill-opacity:1;stroke:#fdfeff;stroke-width:0.0159132;stroke-dasharray:none;stroke-opacity:0.481229"
         d="m 144.03051,87.87205 12.28647,0.981085 c 0,0 -2.73033,2.80309 -5.46065,4.55502 -2.73033,1.75193 -6.82582,-5.536105 -6.82582,-5.536105 z"
         id="path3141-1" />
    </g>
  </g>
</svg>
