<?xml version="1.0" encoding="UTF-8" standalone="no"?>
<!-- Created with Inkscape (http://www.inkscape.org/) -->

<svg
   width="210mm"
   height="297mm"
   viewBox="0 0 210 297"
   version="1.1"
   id="svg5"
   inkscape:version="1.2.2 (b0a84865, 2022-12-01)"
   sodipodi:docname="drawing.svg"
   inkscape:export-filename="bookstore/django-bookstore/blk_skll.svg"
   inkscape:export-xdpi="96"
   inkscape:export-ydpi="96"
   xmlns:inkscape="http://www.inkscape.org/namespaces/inkscape"
   xmlns:sodipodi="http://sodipodi.sourceforge.net/DTD/sodipodi-0.dtd"
   xmlns="http://www.w3.org/2000/svg"
   xmlns:svg="http://www.w3.org/2000/svg">
  <sodipodi:namedview
     id="namedview7"
     pagecolor="#ffffff"
     bordercolor="#000000"
     borderopacity="0.25"
     inkscape:showpageshadow="2"
     inkscape:pageopacity="0.0"
     inkscape:pagecheckerboard="0"
     inkscape:deskcolor="#d1d1d1"
     inkscape:document-units="mm"
     showgrid="false"
     inkscape:zoom="0.86858165"
     inkscape:cx="397.77492"
     inkscape:cy="377.62714"
     inkscape:window-width="2240"
     inkscape:window-height="1260"
     inkscape:window-x="0"
     inkscape:window-y="0"
     inkscape:window-maximized="0"
     inkscape:current-layer="layer1" />
  <defs
     id="defs2">
    <inkscape:path-effect
       effect="spiro"
       id="path-effect1050-79"
       is_visible="true"
       lpeversion="1" />
    <inkscape:path-effect
       effect="spiro"
       id="path-effect1280-4"
       is_visible="true"
       lpeversion="1" />
    <inkscape:path-effect
       effect="spiro"
       id="path-effect1280-7-1"
       is_visible="true"
       lpeversion="1" />
    <inkscape:path-effect
       effect="spiro"
       id="path-effect1050-8"
       is_visible="true"
       lpeversion="1" />
    <inkscape:path-effect
       effect="spiro"
       id="path-effect2238-4"
       is_visible="true"
       lpeversion="1" />
  </defs>
  <g
     inkscape:label="Layer 1"
     inkscape:groupmode="layer"
     id="layer1">
    <g
       id="g5398"
       transform="translate(-7.0061538,35.030769)">
      <rect
         style="fill:#05094b;fill-opacity:1;stroke-width:0.172296"
         id="rect234-9"
         width="50"
         height="65.49231"
         x="69.147697"
         y="50.943012" />
      <path
         style="fill:#eba500;fill-opacity:1;stroke-width:0.230563"
         d="m 84.533095,95.027576 c -3.167378,-1.369924 -5.959763,-3.595628 -8.001547,-6.37773 -2.041785,-2.782102 -3.327692,-6.11341 -3.684753,-9.545826 -0.35706,-3.432417 0.215649,-6.957069 1.641092,-10.099853 1.425442,-3.142783 3.699934,-5.895574 6.517531,-7.888091 2.817596,-1.992518 6.171014,-3.219611 9.609182,-3.516222 3.438167,-0.296612 6.952197,0.338025 10.06941,1.818545 3.11722,1.48052 5.82956,3.803095 7.7722,6.655314 1.94263,2.852219 3.11053,6.226709 3.3466,9.669563 0.43956,6.410573 -2.26738,12.586055 -3.1425,18.95181 -0.46583,3.388533 -0.4161,6.865954 -1.33614,10.160294 -0.46002,1.64717 -1.16885,3.24244 -2.23332,4.58098 -1.06447,1.33854 -2.50167,2.41063 -4.14603,2.88059 -2.130606,0.60894 -4.471507,0.16349 -6.421628,-0.8888 -1.950121,-1.05229 -3.544982,-2.66828 -4.887777,-4.431 -2.655411,-3.48583 -4.426234,-7.640013 -5.10232,-11.969574 z"
         id="path1048-2"
         inkscape:path-effect="#path-effect1050-8"
         inkscape:original-d="m 84.533095,95.027576 c 3.67355,-13.29924 69.122455,9.851324 27.269715,-19.2843 -11.03392,-7.68123 -12.184448,6.42838 -3.1425,18.95181 9.04195,12.523444 -2.2759,4.10098 -7.71549,17.621864 -5.439588,13.5209 -3.397358,-0.99716 -11.309405,-5.3198 -7.912051,-4.32262 -5.737907,-3.54624 -5.10232,-11.969574 z"
         sodipodi:nodetypes="cssssc" />
      <path
         style="fill:#002a88;fill-opacity:1;stroke:#060000;stroke-width:0.791;stroke-dasharray:none;stroke-opacity:1"
         d="m 88.060626,92.232571 c -2.624196,-1.135333 -4.937622,-2.979671 -6.62911,-5.284938 -1.691488,-2.305267 -2.756665,-5.065505 -3.05226,-7.909448 -0.295594,-2.843943 0.179158,-5.764239 1.3604,-8.368093 1.181242,-2.603854 3.065921,-4.884535 5.400537,-6.535279 2.334616,-1.650744 5.113134,-2.667284 7.96183,-2.91289 2.848695,-0.245607 5.760204,0.280356 8.342907,1.507142 2.58271,1.226786 4.82995,3.151226 6.43944,5.514471 1.60949,2.363244 2.57708,5.159186 2.77262,8.011755 0.36409,5.311267 -1.8786,10.427725 -2.60396,15.70181 -0.38611,2.807444 -0.34518,5.688545 -1.10764,8.417919 -0.38123,1.36469 -0.96858,2.68636 -1.85054,3.79535 -0.88196,1.10898 -2.07269,1.99722 -3.43506,2.38666 -1.765407,0.50465 -3.705108,0.13566 -5.321037,-0.73618 -1.615929,-0.87184 -2.937514,-2.21079 -4.050227,-3.67134 -2.200216,-2.888009 -3.667559,-6.3298 -4.2279,-9.916939 z"
         id="path1048-0"
         inkscape:path-effect="#path-effect1050-79"
         inkscape:original-d="m 88.060626,92.232571 c 3.04399,-11.01858 57.276574,8.161939 22.596364,-15.97728 -9.14297,-6.36399 -10.09634,5.32599 -2.60396,15.70181 7.49239,10.375819 -1.88586,3.39771 -6.39324,14.599929 -4.507384,11.20223 -2.815144,-0.82616 -9.371264,-4.40752 -6.55612,-3.581349 -4.75457,-2.938109 -4.2279,-9.916939 z"
         sodipodi:nodetypes="cssssc" />
      <path
         style="fill:#4d4d4d;fill-opacity:1;stroke:#a7ffaf;stroke-width:0.088155;stroke-dasharray:none;stroke-opacity:0.481229"
         d="m 87.938325,73.546873 c -0.532075,0.780784 -0.806444,1.734127 -0.770806,2.678297 0.03564,0.94417 0.381094,1.874118 0.970513,2.612571 0.589419,0.738452 1.419651,1.281461 2.332429,1.525513 0.912779,0.244052 1.903225,0.187844 2.782532,-0.157911 1.115637,-0.438683 2.015599,-1.316089 2.679999,-2.313917 0.6644,-0.997828 1.116152,-2.119281 1.555127,-3.234803 0.596182,-1.515016 1.177511,-3.035877 1.743875,-4.56229"
         id="path1278-7"
         inkscape:path-effect="#path-effect1280-4"
         inkscape:original-d="m 87.938325,73.546873 c 1.743947,2.2196 3.543184,4.43909 5.314668,6.65847 1.771484,2.21938 2.823489,-3.69905 4.235126,-5.54872 1.411635,-1.84969 1.162656,-3.04142 1.743875,-4.56229" />
      <path
         style="fill:#4d4d4d;fill-opacity:1;stroke:#a7ffaf;stroke-width:0.0683132;stroke-dasharray:none;stroke-opacity:0.481229"
         d="m 102.5255,70.24099 c -0.50192,0.581031 -0.7997,1.335025 -0.83023,2.102221 -0.0305,0.767197 0.20637,1.542472 0.66053,2.161556 0.45415,0.619085 1.12252,1.077843 1.86349,1.279073 0.74096,0.201229 1.54957,0.143584 2.2545,-0.16072 0.86419,-0.373057 1.5428,-1.091817 2.0305,-1.896897 0.4877,-0.805081 0.80354,-1.70024 1.1158,-2.588213 0.43222,-1.229116 0.86407,-2.458366 1.29553,-3.68775"
         id="path1278-8-1"
         inkscape:path-effect="#path-effect1280-7-1"
         inkscape:original-d="m 102.5255,70.24099 c 1.29559,1.79413 2.63225,3.58817 3.94829,5.38213 1.31605,1.79396 2.09759,-2.98998 3.1463,-4.48511 1.04871,-1.49512 0.86374,-2.45842 1.29553,-3.68775" />
      <path
         style="fill:none;fill-opacity:1;stroke:#ffffff;stroke-width:0.0942604;stroke-opacity:1"
         d="m 85.479178,85.969902 c 3.328042,0.756815 6.234964,3.173513 7.586821,6.307379 0.739926,1.715291 1.025468,3.584723 1.395838,5.415717 0.272867,1.348972 0.595015,2.687972 0.965586,4.013442"
         id="path2236-5"
         inkscape:path-effect="#path-effect2238-4"
         inkscape:original-d="m 85.479178,85.969902 c 1.076423,2.75841 6.476654,3.554989 7.586821,6.307379 1.110165,2.752397 -0.488103,4.260797 1.395838,5.415717 1.883942,1.15493 0.64378,2.675822 0.965586,4.013442"
         sodipodi:nodetypes="cssc" />
      <path
         style="fill:#000000;fill-opacity:1;stroke:#fdfffe;stroke-width:0.0159132;stroke-dasharray:none;stroke-opacity:0.481229"
         d="m 93.768979,88.481283 12.286471,0.98108 c 0,0 -2.73033,2.80309 -5.46066,4.55502 -2.730324,1.75193 -6.825811,-5.5361 -6.825811,-5.5361 z"
         id="path3141-9"
         sodipodi:nodetypes="ccsc" />
    </g>
  </g>
</svg>
